<svg xmlns="http://www.w3.org/2000/svg" width="367.143" height="155.714" viewBox="0 0 97.14 41.199"><g paint-order="markers fill stroke"><path d="M0 0v41.2h97.14V0H0z" fill="#22272e"/><g fill="#f3f4f5" color="#000" font-weight="400" font-family="sans-serif"><path style="line-height:normal;font-variant-ligatures:normal;font-variant-position:normal;font-variant-caps:normal;font-variant-numeric:normal;font-variant-alternates:normal;font-feature-settings:normal;text-indent:0;text-align:start;text-decoration-line:none;text-decoration-style:solid;text-decoration-color:#000;text-transform:none;text-orientation:mixed;white-space:normal;shape-padding:0;isolation:auto;mix-blend-mode:normal;solid-color:#000;solid-opacity:1" d="M7.867 8.446V14.7h24.626V8.446zm0 9.181v6.254h24.626v-6.254zm0 9.181v6.266h24.626V26.81zM76.798 8.125c-6.89 0-12.475 5.585-12.475 12.475s5.585 12.474 12.475 12.474S89.273 27.49 89.273 20.6c0-6.89-5.585-12.475-12.475-12.475zM37.085 8.125l12.475 24.95 12.475-24.95z" overflow="visible"/><path d="M7.867 8.446V14.7h24.626V8.446zm0 9.181v6.254h24.626v-6.254zm0 9.181v6.266h24.626V26.81z" style="line-height:normal;font-variant-ligatures:normal;font-variant-position:normal;font-variant-caps:normal;font-variant-numeric:normal;font-variant-alternates:normal;font-feature-settings:normal;text-indent:0;text-align:start;text-decoration-line:none;text-decoration-style:solid;text-decoration-color:#000;text-transform:none;text-orientation:mixed;white-space:normal;shape-padding:0;isolation:auto;mix-blend-mode:normal;solid-color:#000;solid-opacity:1" overflow="visible"/></g></g></svg>